<?xml version="1.0" encoding="UTF-8" standalone="no"?><!DOCTYPE svg PUBLIC "-//W3C//DTD SVG 1.1//EN" "http://www.w3.org/Graphics/SVG/1.1/DTD/svg11.dtd"><svg width="100%" height="100%" viewBox="0 0 2083 1319" version="1.1" xmlns="http://www.w3.org/2000/svg" xmlns:xlink="http://www.w3.org/1999/xlink" xml:space="preserve" xmlns:serif="http://www.serif.com/" style="fill-rule:evenodd;clip-rule:evenodd;stroke-linejoin:round;stroke-miterlimit:2;"><g><rect x="0" y="-339" width="2083.33" height="2083.33" style="fill:#fff;fill-rule:nonzero;"/><path d="M1564.84,74.646c-30.013,0 -55.8,18.062 -67.113,43.896c-5.908,-2.492 -12.404,-3.842 -19.246,-3.842c-27.687,0 -50.141,22.454 -50.141,50.142l207.616,0c1.35,-5.488 2.025,-11.188 2.025,-17.05c0,-40.396 -32.754,-73.146 -73.141,-73.146Z" style="fill:#d0e6f2;fill-rule:nonzero;"/><path d="M415.583,477.325c-24.325,0 -45.229,14.646 -54.396,35.583c-4.791,-2.016 -10.058,-3.112 -15.604,-3.112c-22.441,0 -40.641,18.2 -40.641,40.641l168.291,0c1.096,-4.445 1.642,-9.062 1.642,-13.82c0,-32.738 -26.546,-59.292 -59.292,-59.292Z" style="fill:#d0e6f2;fill-rule:nonzero;"/><path d="M1264.35,428.1c32.763,0 60.908,19.717 73.259,47.917c6.45,-2.721 13.545,-4.196 21.008,-4.196c30.225,0 54.737,24.512 54.737,54.733l-71.321,0l-38.149,0l-117.167,0c-1.471,-5.987 -2.209,-12.208 -2.209,-18.612c0,-44.092 35.751,-79.842 79.842,-79.842Z" style="fill:#d0e6f2;fill-rule:nonzero;"/><path d="M694.963,139.188c26.862,0 49.941,16.17 60.07,39.287c5.288,-2.229 11.105,-3.438 17.225,-3.438c24.784,0 44.88,20.096 44.88,44.88l-58.48,0l-31.279,0l-96.071,0c-1.208,-4.913 -1.812,-10.009 -1.812,-15.259c0,-36.158 29.317,-65.47 65.467,-65.47Z" style="fill:#d0e6f2;fill-rule:nonzero;"/><path d="M1802.18,582.554c24.33,0 45.234,14.646 54.4,35.579c4.788,-2.016 10.059,-3.112 15.6,-3.112c22.446,0 40.646,18.2 40.646,40.646l-52.962,0l-28.329,0l-87.001,0c-1.091,-4.446 -1.641,-9.067 -1.641,-13.821c0,-32.742 26.55,-59.292 59.287,-59.292Z" style="fill:#d0e6f2;fill-rule:nonzero;"/><path d="M1204.55,1080.67l-22.738,0c0.075,-0.771 0.1,-1.542 0.1,-2.342c0,-15.671 -12.691,-28.358 -28.362,-28.358c-7.554,0 -14.413,2.929 -19.5,7.729c-6.45,-10.125 -17.754,-16.829 -30.654,-16.829c-20.092,0 -36.35,16.262 -36.35,36.333c0,1.154 0.046,2.308 0.15,3.467l-6.188,0c-3.162,0 -5.987,1.283 -8.071,3.337c-2.054,2.059 -3.341,4.884 -3.341,8.042c0,6.296 5.116,11.408 11.412,11.408l143.542,0c3.133,0 6.008,-1.283 8.062,-3.337c2.059,-2.083 3.342,-4.909 3.342,-8.071c0,-6.296 -5.108,-11.379 -11.404,-11.379Z" style="fill:#e59286;fill-rule:nonzero;"/><path d="M1215.94,1092.06c0,3.146 -1.275,5.996 -3.342,8.059c-2.033,2.066 -4.913,3.341 -8.059,3.341l-143.541,0c-6.292,0 -11.404,-5.108 -11.404,-11.4c0,-1.737 0.362,-3.341 1.05,-4.779c1.837,3.896 5.766,6.617 10.354,6.617l143.541,0c3.146,0 6.026,-1.279 8.059,-3.342c0.95,-0.954 1.733,-2.062 2.291,-3.275c0.655,1.438 1.051,3.075 1.051,4.779Z" style="fill:#e1857e;fill-rule:nonzero;"/><path d="M1992.58,1117.28c0,73.433 -415.579,132.963 -928.221,132.963c-512.642,0 -928.225,-59.53 -928.225,-132.963c0,-73.437 415.583,-132.966 928.225,-132.966c512.642,0 928.221,59.529 928.221,132.966Z" style="fill:#f9e4c3;fill-rule:nonzero;"/><path d="M212.937,1103.46c-4.95,0 -8.962,-4.008 -8.962,-8.962l0,-172.988c0,-4.945 4.012,-8.958 8.962,-8.958c4.95,0 8.959,4.013 8.959,8.958l0,172.988c0,4.954 -4.009,8.962 -8.959,8.962Z" style="fill:#c6966f;fill-rule:nonzero;"/><path d="M219.279,1009.8c-2.575,0 -4.971,-0.137 -7.112,-0.387c-3.717,-0.421 -6.388,-3.78 -5.959,-7.5c0.421,-3.713 3.75,-6.375 7.488,-5.959c1.633,0.171 39.233,3.938 45.921,-26.162c0.808,-3.65 4.433,-5.967 8.083,-5.142c3.654,0.808 5.958,4.429 5.142,8.079c-6.571,29.583 -34.8,37.071 -53.563,37.071Z" style="fill:#c6966f;fill-rule:nonzero;"/><path d="M208.958,984.721c-17.804,0 -46.225,-9.713 -51.07,-48.129c-0.471,-3.717 2.158,-7.105 5.87,-7.575c3.721,-0.48 7.1,2.162 7.571,5.871c4.863,38.52 37.238,36.474 40.917,36.116c3.754,-0.337 7.037,2.346 7.417,6.054c0.379,3.709 -2.296,7.03 -6.009,7.425c-1.454,0.155 -3.029,0.238 -4.696,0.238Z" style="fill:#c6966f;fill-rule:nonzero;"/><path d="M286.996,977.867l-17.592,0c-18.908,0 -34.237,-15.329 -34.237,-34.238c0,-18.912 15.329,-34.241 34.237,-34.241l17.592,0c18.912,0 34.237,15.329 34.237,34.241c0,18.909 -15.325,34.238 -34.237,34.238Z" style="fill:#009ba1;fill-rule:nonzero;"/><path d="M321.233,943.633c0,9.463 -3.82,18.021 -10.025,24.205c-6.204,6.204 -14.766,10.024 -24.2,10.024l-17.616,0c-18.888,0 -34.225,-15.312 -34.225,-34.229c0,-1.841 0.137,-3.658 0.433,-5.42c2.6,16.341 16.75,28.808 33.792,28.808l17.616,0c9.434,0 17.996,-3.85 24.2,-10.025c4.988,-4.988 8.425,-11.492 9.592,-18.783c0.3,1.762 0.433,3.579 0.433,5.42Z" style="fill:#008c8d;fill-rule:nonzero;"/><path d="M166.237,956.8l-17.358,0c-18.662,0 -33.787,-15.125 -33.787,-33.783c0,-18.663 15.125,-33.788 33.787,-33.788l17.358,0c18.663,0 33.788,15.125 33.788,33.788c0,18.658 -15.125,33.783 -33.788,33.783Z" style="fill:#009ba1;fill-rule:nonzero;"/><path d="M200.017,923.012c0,9.321 -3.792,17.776 -9.892,23.901c-6.121,6.125 -14.55,9.891 -23.9,9.891l-17.346,0c-18.667,0 -33.791,-15.121 -33.791,-33.792c0,-2.358 0.245,-4.633 0.679,-6.858c3.196,15.367 16.8,26.909 33.112,26.909l17.346,0c16.317,0 29.917,-11.542 33.117,-26.909c0.433,2.225 0.675,4.5 0.675,6.858Z" style="fill:#008c8d;fill-rule:nonzero;"/><path d="M232.562,929.088l-28.962,0c-31.133,0 -56.371,-25.238 -56.371,-56.367c0,-31.133 25.238,-56.375 56.371,-56.375l28.962,0c31.134,0 56.367,25.242 56.367,56.375c0,31.129 -25.233,56.367 -56.367,56.367Z" style="fill:#009ba1;fill-rule:nonzero;"/><path d="M288.933,872.717c0,15.554 -6.316,29.646 -16.504,39.862c-10.187,10.188 -24.283,16.504 -39.867,16.504l-28.966,0c-31.138,0 -56.367,-25.233 -56.367,-56.366c0,-3.309 0.296,-6.563 0.838,-9.704c4.608,26.504 27.695,46.666 55.529,46.666l28.966,0c15.584,0 29.68,-6.316 39.867,-16.529c8.021,-8.025 13.629,-18.458 15.663,-30.137c0.541,3.141 0.841,6.395 0.841,9.704Z" style="fill:#008c8d;fill-rule:nonzero;"/><path d="M1856.56,1083.83c-5.875,0 -10.642,-4.766 -10.642,-10.641l0,-205.409c0,-5.875 4.767,-10.642 10.642,-10.642c5.879,0 10.641,4.767 10.641,10.642l0,205.409c0,5.875 -4.762,10.641 -10.641,10.641Z" style="fill:#c6966f;fill-rule:nonzero;"/><path d="M1864.1,972.613c-3.063,0 -5.904,-0.163 -8.45,-0.455c-4.408,-0.504 -7.583,-4.491 -7.075,-8.908c0.5,-4.412 4.458,-7.571 8.892,-7.079c1.941,0.204 46.591,4.679 54.529,-31.059c0.962,-4.337 5.267,-7.091 9.6,-6.112c4.337,0.963 7.071,5.262 6.104,9.6c-7.804,35.125 -41.325,44.013 -63.6,44.013Z" style="fill:#c6966f;fill-rule:nonzero;"/><path d="M1851.84,942.838c-21.142,0 -54.888,-11.534 -60.646,-57.155c-0.554,-4.412 2.566,-8.437 6.975,-8.991c4.417,-0.571 8.433,2.562 8.991,6.97c5.771,45.738 44.213,43.313 48.584,42.884c4.458,-0.396 8.358,2.787 8.804,7.192c0.454,4.404 -2.725,8.345 -7.133,8.816c-1.725,0.179 -3.596,0.284 -5.575,0.284Z" style="fill:#c6966f;fill-rule:nonzero;"/><path d="M1944.51,934.696l-20.891,0c-22.455,0 -40.654,-18.204 -40.654,-40.654c0,-22.454 18.199,-40.659 40.654,-40.659l20.891,0c22.45,0 40.654,18.205 40.654,40.659c0,22.45 -18.204,40.654 -40.654,40.654Z" style="fill:#009ba1;fill-rule:nonzero;"/><path d="M1985.16,894.05c0,11.229 -4.533,21.396 -11.904,28.733c-7.371,7.371 -17.537,11.909 -28.737,11.909l-20.917,0c-22.429,0 -40.641,-18.184 -40.641,-40.642c0,-2.192 0.158,-4.346 0.512,-6.438c3.092,19.405 19.892,34.209 40.129,34.209l20.917,0c11.2,0 21.366,-4.571 28.737,-11.909c5.921,-5.924 10.005,-13.645 11.388,-22.3c0.354,2.092 0.516,4.246 0.516,6.438Z" style="fill:#008c8d;fill-rule:nonzero;"/><path d="M1801.12,909.687l-20.617,0c-22.158,0 -40.121,-17.966 -40.121,-40.12c0,-22.163 17.963,-40.121 40.121,-40.121l20.617,0c22.154,0 40.116,17.958 40.116,40.121c0,22.154 -17.962,40.12 -40.116,40.12Z" style="fill:#009ba1;fill-rule:nonzero;"/><path d="M1841.23,869.562c0,11.067 -4.508,21.105 -11.75,28.38c-7.271,7.27 -17.275,11.745 -28.379,11.745l-20.596,0c-22.171,0 -40.129,-17.958 -40.129,-40.125c0,-2.804 0.292,-5.508 0.808,-8.141c3.796,18.242 19.95,31.954 39.321,31.954l20.596,0c19.371,0 35.525,-13.712 39.321,-31.954c0.517,2.633 0.808,5.337 0.808,8.141Z" style="fill:#008c8d;fill-rule:nonzero;"/><path d="M1879.87,876.771l-34.392,0c-36.967,0 -66.933,-29.967 -66.933,-66.934c0,-36.966 29.966,-66.937 66.933,-66.937l34.392,0c36.966,0 66.933,29.971 66.933,66.937c0,36.967 -29.967,66.934 -66.933,66.934Z" style="fill:#009ba1;fill-rule:nonzero;"/><path d="M1946.8,809.837c0,18.467 -7.496,35.201 -19.596,47.334c-12.1,12.096 -28.833,19.596 -47.333,19.596l-34.4,0c-36.975,0 -66.933,-29.959 -66.933,-66.93c0,-3.929 0.354,-7.787 1,-11.52c5.466,31.471 32.883,55.412 65.933,55.412l34.4,0c18.5,0 35.233,-7.5 47.333,-19.629c9.525,-9.525 16.188,-21.917 18.6,-35.783c0.642,3.733 0.996,7.591 0.996,11.52Z" style="fill:#008c8d;fill-rule:nonzero;"/><path d="M747.625,494.875l-278.817,0c-17.329,0 -32.037,5.567 -44.137,16.704c-12.104,11.138 -18.15,25.921 -18.15,44.338l0,472.258c0,18.433 5.704,33.275 17.121,44.55c11.408,11.279 25.225,16.913 41.454,16.913c16.216,0 30.241,-5.634 42.067,-16.913c11.82,-11.275 17.737,-26.117 17.737,-44.55l0,-198.387l210.763,0c13.466,0 24.058,-4.463 31.762,-13.405c7.692,-8.933 11.546,-19.725 11.546,-32.379c0,-12.371 -3.917,-23.091 -11.754,-32.167c-7.838,-9.074 -18.354,-13.616 -31.554,-13.616l-210.763,0l0,-150.133l222.725,0c13.2,0 23.717,-4.671 31.55,-14.021c7.837,-9.346 11.758,-20.209 11.758,-32.588c0,-12.371 -3.921,-23.233 -11.758,-32.579c-7.833,-9.346 -18.35,-14.025 -31.55,-14.025Z" style="fill:#184a60;fill-rule:nonzero;"/><path d="M885.033,873.092l101.879,-271.804l101.88,271.804l-203.759,0Zm195.917,-307.688c-11.546,-30.521 -24.817,-51.004 -39.8,-61.454c-14.987,-10.446 -33.063,-15.675 -54.238,-15.675c-21.179,0 -39.258,5.229 -54.237,15.675c-14.988,10.45 -28.25,30.933 -39.804,61.454l-181.067,453.292c-2.75,7.15 -4.125,14.162 -4.125,21.033c0,15.125 5.775,27.633 17.321,37.533c11.554,9.901 24.75,14.846 39.596,14.846c11.821,0 22.55,-3.362 32.175,-10.104c9.621,-6.733 16.771,-16.837 21.45,-30.312l37.121,-98.992l263.146,0l37.12,98.992c4.671,13.475 11.821,23.579 21.45,30.312c9.617,6.742 20.346,10.104 32.171,10.104c14.846,0 28.046,-4.945 39.592,-14.846c11.55,-9.9 17.325,-22.408 17.325,-37.533c0,-6.871 -1.379,-13.883 -4.121,-21.033l-181.075,-453.292Z" style="fill:#184a60;fill-rule:nonzero;"/><path d="M1395.06,950.846c-27.087,-37.534 -40.629,-91.359 -40.629,-161.475c0,-69.567 13.613,-123.254 40.838,-161.067c27.216,-37.804 68.466,-56.712 123.733,-56.712c55.546,0 96.858,18.837 123.946,56.508c27.079,37.671 40.625,91.429 40.625,161.271c0,70.116 -13.613,123.941 -40.829,161.475c-27.225,37.533 -68.471,56.3 -123.742,56.3c-55.546,0 -96.863,-18.767 -123.942,-56.3Zm330.996,149.508l-57.121,-33.029c24.271,-12.867 45.667,-29.475 64.138,-49.867c50.037,-55.27 75.062,-131.3 75.062,-228.087c0,-96.788 -25.025,-172.888 -75.062,-228.296c-50.05,-55.404 -121.408,-83.112 -214.071,-83.112c-92.121,0 -163.333,27.708 -213.65,83.112c-50.321,55.408 -75.483,131.508 -75.483,228.296c0,96.787 25.162,172.817 75.483,228.087c50.317,55.267 121.529,82.896 213.65,82.896c8.021,0 15.825,-0.279 23.529,-0.696l146.409,76.184c6.862,3.846 14.154,5.771 21.858,5.771c10.992,0 20.55,-4.33 28.667,-12.992c8.104,-8.663 12.166,-19.042 12.166,-31.142c0,-15.404 -8.525,-27.775 -25.575,-37.125Z" style="fill:#184a60;fill-rule:nonzero;"/><path d="M1266.15,1039.73c0,15.129 -5.779,27.617 -17.325,37.542c-11.554,9.879 -24.775,14.846 -39.617,14.846c-11.795,0 -22.529,-3.379 -32.17,-10.129c-5.942,-4.146 -10.942,-9.6 -15.009,-16.35c3.092,0.571 6.305,0.816 9.559,0.816c14.841,0 28.062,-4.966 39.612,-14.85c11.55,-9.92 17.329,-22.408 17.329,-37.537c0,-6.875 -1.383,-13.913 -4.15,-21.029l-181.07,-453.321c-7.525,-19.85 -15.738,-35.467 -24.767,-46.813c8.175,2.559 15.737,6.263 22.612,11.021c14.967,10.492 28.225,30.95 39.775,61.454l181.071,453.325c2.767,7.117 4.15,14.154 4.15,21.025Z" style="fill:#0d4053;fill-rule:nonzero;"/><path d="M1118.49,952.7l-263.159,0l-37.092,98.992c-4.679,13.462 -11.833,23.591 -21.474,30.3c-9.6,6.75 -20.334,10.129 -32.171,10.129c-14.846,0 -28.021,-4.967 -39.575,-14.846c-8.175,-6.996 -13.421,-15.296 -15.817,-24.892c10.775,8.175 22.896,12.284 36.4,12.284c11.833,0 22.571,-3.379 32.171,-10.129c9.637,-6.709 16.796,-16.838 21.475,-30.296l24.008,-64.013c7.896,-21.042 28.013,-34.983 50.488,-34.983l205.925,0c17.162,0 32.525,10.646 38.546,26.716l0.275,0.738Z" style="fill:#0d4053;fill-rule:nonzero;"/><path d="M986.912,601.288l-101.891,271.816c-13.775,0 -23.313,-13.758 -18.479,-26.658l91.895,-245.158c4.934,-13.159 23.546,-13.159 28.475,0Z" style="fill:#0d4053;fill-rule:nonzero;"/><path d="M778.971,783.996c0,12.646 -3.863,23.462 -11.55,32.371c-7.688,8.95 -18.3,13.421 -31.763,13.421l-210.758,0l0,198.395c0,18.425 -5.9,33.267 -17.733,44.538c-11.838,11.266 -25.871,16.917 -42.059,16.917c-16.225,0 -30.054,-5.651 -41.483,-16.917c-4.758,-4.717 -8.504,-10.009 -11.267,-15.946c8.175,4.271 17.288,6.425 27.334,6.425c16.187,0 30.216,-5.65 42.054,-16.917c11.833,-11.266 17.733,-26.112 17.733,-44.537l0,-176.429c0,-12.134 9.829,-21.967 21.963,-21.967l188.796,0c13.462,0 24.075,-4.471 31.762,-13.421c7.688,-8.904 11.554,-19.725 11.554,-32.371c0,-6.062 -0.937,-11.716 -2.808,-16.958c6.425,2.192 11.875,5.938 16.471,11.221c7.85,9.071 11.754,19.808 11.754,32.175Z" style="fill:#0d4053;fill-rule:nonzero;"/><path d="M790.929,541.471c0,12.404 -3.904,23.262 -11.754,32.575c-7.85,9.354 -18.342,14.033 -31.562,14.033l-222.713,0l0,152.521c-13.479,0 -24.404,-10.929 -24.404,-24.408l0,-130.146c0,-13.479 10.925,-24.404 24.404,-24.404l198.312,0c13.217,0 23.709,-4.675 31.559,-14.03c7.85,-9.316 11.754,-20.174 11.754,-32.579c0,-6.183 -0.975,-12 -2.925,-17.408c6.017,2.279 11.225,6.062 15.575,11.267c7.85,9.354 11.754,20.212 11.754,32.579Z" style="fill:#0d4053;fill-rule:nonzero;"/><path d="M1751.62,1137.47c0,12.117 -4.067,22.487 -12.158,31.15c-8.134,8.662 -17.692,12.975 -28.676,12.975c-7.687,0 -14.966,-1.913 -21.837,-5.775l-146.421,-76.179c-7.687,0.45 -15.496,0.733 -23.546,0.733c-92.125,0 -163.3,-27.654 -213.65,-82.929c-10.654,-11.713 -20.175,-24.363 -28.591,-37.946c0.65,0.733 1.262,1.463 1.912,2.154c50.067,55.396 121.404,83.092 214.096,83.092c92.117,0 163.292,-27.696 213.646,-83.092c50.308,-55.392 75.483,-131.491 75.483,-228.287c0,-76.259 -15.616,-139.625 -46.896,-190.1c48.771,55.195 73.129,130.558 73.129,226.096c0,96.795 -25.012,172.812 -75.037,228.083c-18.463,20.417 -39.858,37.012 -64.137,49.866l57.099,33.063c17.084,9.317 25.584,21.721 25.584,37.096Z" style="fill:#0d4053;fill-rule:nonzero;"/><path d="M1132.85,1073.3l30.088,0c-0.1,-1.017 -0.134,-2.038 -0.134,-3.092c0,-20.741 16.796,-37.541 37.538,-37.541c9.996,0 19.075,3.879 25.808,10.237c8.534,-13.4 23.496,-22.271 40.567,-22.271c26.591,0 48.112,21.525 48.112,48.079c0,1.529 -0.071,3.059 -0.204,4.588l8.196,0c4.179,0 7.921,1.7 10.675,4.425c2.717,2.716 4.421,6.458 4.421,10.637c0,8.334 -6.767,15.1 -15.096,15.1l-22.854,0l-66.471,0l-15.742,0l-34.821,0l-50.083,0c-4.15,0 -7.958,-1.7 -10.679,-4.421c-2.721,-2.754 -4.421,-6.495 -4.421,-10.679c0,-8.329 6.767,-15.062 15.1,-15.062Z" style="fill:#00b1d7;fill-rule:nonzero;"/><path d="M1117.78,1088.37c0,4.162 1.687,7.937 4.417,10.666c2.691,2.73 6.508,4.421 10.67,4.421l189.967,0c8.329,0 15.092,-6.762 15.092,-15.087c0,-2.296 -0.479,-4.421 -1.388,-6.329c-2.425,5.158 -7.629,8.754 -13.704,8.754l-189.967,0c-4.162,0 -7.979,-1.688 -10.67,-4.417c-1.255,-1.258 -2.296,-2.729 -3.03,-4.337c-0.866,1.908 -1.387,4.075 -1.387,6.329Z" style="fill:#00b0cf;fill-rule:nonzero;"/><path d="M1079.17,1080.67l22.738,0c-0.075,-0.771 -0.101,-1.542 -0.101,-2.342c0,-15.671 12.688,-28.358 28.363,-28.358c7.554,0 14.412,2.929 19.5,7.729c6.45,-10.125 17.754,-16.829 30.65,-16.829c20.096,0 36.358,16.262 36.358,36.333c0,1.154 -0.054,2.308 -0.154,3.467l6.188,0c3.162,0 5.991,1.283 8.071,3.337c2.054,2.059 3.337,4.884 3.337,8.042c0,6.296 -5.112,11.408 -11.408,11.408l-17.263,0l-50.229,0l-11.896,0l-26.308,0l-37.846,0c-3.133,0 -6.008,-1.283 -8.067,-3.337c-2.054,-2.083 -3.337,-4.909 -3.337,-8.071c0,-6.296 5.108,-11.379 11.404,-11.379Z" style="fill:#f1a23c;fill-rule:nonzero;"/><path d="M1067.78,1092.06c0,3.146 1.275,5.996 3.342,8.059c2.033,2.066 4.912,3.341 8.058,3.341l143.542,0c6.292,0 11.4,-5.108 11.4,-11.4c0,-1.737 -0.358,-3.341 -1.05,-4.779c-1.833,3.896 -5.763,6.617 -10.35,6.617l-143.542,0c-3.146,0 -6.025,-1.279 -8.058,-3.342c-0.95,-0.954 -1.737,-2.062 -2.296,-3.275c-0.654,1.438 -1.046,3.075 -1.046,4.779Z" style="fill:#ef9233;fill-rule:nonzero;"/><path d="M632.467,712.946l-3.33,0c0.03,-0.513 0.08,-1.017 0.08,-1.538c0,-14.812 -12.009,-26.816 -26.817,-26.816c-6.121,0 -11.746,2.075 -16.258,5.525c-6.184,-9.717 -17.038,-16.142 -29.434,-16.142c-19.254,0 -34.879,15.625 -34.879,34.908c0,1.692 0.125,3.354 0.371,4.984c-1.6,0.616 -3.046,1.566 -4.246,2.77c-2.275,2.305 -3.692,5.471 -3.692,8.951c0,6.979 5.659,12.637 12.642,12.637l105.563,0c3.475,0 6.641,-1.412 8.95,-3.687c2.275,-2.309 3.691,-5.475 3.691,-8.95c0,-6.984 -5.662,-12.642 -12.641,-12.642Z" style="fill:#f1a23c;fill-rule:nonzero;"/><path d="M645.108,725.588c0,3.475 -1.416,6.641 -3.691,8.95c-2.309,2.275 -5.475,3.687 -8.95,3.687l-105.563,0c-6.983,0 -12.642,-5.658 -12.642,-12.637c0,-1.417 0.246,-2.771 0.646,-4.034c1.692,5.013 6.43,8.584 11.996,8.584l105.563,0c3.475,0 6.641,-1.384 8.95,-3.692c1.354,-1.35 2.4,-3.042 3.046,-4.892c0.399,1.263 0.645,2.617 0.645,4.034Z" style="fill:#ef9234;fill-rule:nonzero;"/><path d="M998.513,180.933c8.437,-13.908 25.183,-22.687 41.299,-20.487c16.117,2.2 30.276,15.975 31.759,32.171c1.083,11.875 -4.046,23.295 -7.408,34.737c-3.359,11.442 -4.592,24.996 2.979,34.204c2.012,2.446 4.525,4.417 6.746,6.671c8.349,8.488 12.125,21.238 9.737,32.904c-2.387,11.667 -10.862,21.909 -21.875,26.438c-11.008,4.529 -24.237,3.212 -34.142,-3.4c-9.708,7.867 -24.475,8.954 -34.995,2.216c-10.525,-6.733 -15.967,-20.52 -12.892,-32.629c2.121,-8.329 7.721,-15.433 9.933,-23.737c2.609,-9.767 0.288,-20.063 -0.641,-30.129c-1.938,-20.896 -1.384,-41.025 9.5,-58.959Z" style="fill:#624220;fill-rule:nonzero;"/><path d="M982.517,456.292l-105.709,26.437c-3.745,0.938 -7.079,3.088 -9.475,6.117l-53.154,69.579c0,0 6.267,15.162 27.025,10.796l41.183,-52.134c3.534,-4.699 8.78,-7.812 14.596,-8.654l92.55,-13.425c5.796,-0.696 9.817,-6.125 8.792,-11.871l-3.342,-18.77c-1.029,-5.796 -6.754,-9.504 -12.466,-8.075Z" style="fill:#f4b6a4;fill-rule:nonzero;"/><path d="M841.204,569.221l-12.925,21.829c-2.104,3.55 -6.525,4.971 -10.3,3.308l-41.746,-18.371c-5.446,-2.4 -7.429,-9.12 -4.154,-14.091c1.829,-2.771 4.954,-4.404 8.271,-4.321l33.829,0.85c0,0 9.404,14.721 27.025,10.796Z" style="fill:#ef9234;fill-rule:nonzero;"/><path d="M979.242,449.058l-92.813,57.088c-3.291,2.025 -5.821,5.083 -7.192,8.691l-29.687,82.371c0,0 10.546,12.567 29.017,2.142l23.546,-62.125c1.945,-5.546 6.012,-10.096 11.304,-12.658l84.187,-40.713c5.321,-2.412 7.517,-8.796 4.804,-13.971l-8.845,-16.883c-2.734,-5.217 -9.309,-7.025 -14.321,-3.942Z" style="fill:#f7c6b9;fill-rule:nonzero;"/><path d="M878.567,599.35l-5.738,24.713c-0.933,4.02 -4.721,6.708 -8.821,6.262l-45.341,-4.925c-5.917,-0.646 -9.838,-6.458 -8.213,-12.183c0.909,-3.192 3.396,-5.692 6.584,-6.617l32.512,-9.392c0,0 13.404,11.2 29.017,2.142Z" style="fill:#ef9234;fill-rule:nonzero;"/><path d="M1035.33,424.896c5.192,14.691 10.442,30.525 6.321,45.55c-3.138,11.429 -11.467,20.883 -21.183,27.671c-9.721,6.787 -20.846,11.229 -31.863,15.608c-20.708,8.233 -34.908,15.771 -53.496,23.779c-7.025,3.025 -15.162,1.234 -20.354,-4.383c-14.971,-16.217 -28.75,-36 -33.521,-56.763c-2.145,-9.316 2.471,-18.883 10.979,-23.237c25.742,-13.171 51.421,-26.225 78.117,-37.429c22.017,2.908 42.984,6.3 65,9.204Z" style="fill:#3e79be;fill-rule:nonzero;"/><path d="M896.2,328.717l-0.242,0.196c-0.146,0.095 -0.291,0.191 -0.437,0.241c-0.338,0.196 -0.729,0.292 -1.117,0.338l-23.525,1.071c-1.262,0.045 -2.425,-0.73 -2.812,-1.942l-14.904,-46.721c-0.534,-1.7 0.633,-3.496 2.425,-3.637l22.362,-1.796l0.533,0l0,0.045c0.246,0 0.488,0.05 0.73,0.146l6.595,2.571c0.78,0.342 1.409,1.021 1.65,1.846l11.459,39.104c0.92,3.154 -0.146,6.55 -2.717,8.538Z" style="fill:#6b7f84;fill-rule:nonzero;"/><path d="M896.2,328.717l-0.242,0.196c-0.146,0.095 -0.291,0.191 -0.437,0.241c-0.196,-0.241 -0.338,-0.483 -0.438,-0.775l-16.6,-51.867c0.246,0 0.488,0.05 0.73,0.146l6.595,2.571c0.78,0.342 1.409,1.021 1.65,1.846l11.459,39.104c0.92,3.154 -0.146,6.55 -2.717,8.538Z" style="fill:#768d98;fill-rule:nonzero;"/><path d="M870.508,285.1c0,1.463 -1.183,2.646 -2.641,2.646c-1.463,0 -2.646,-1.183 -2.646,-2.646c0,-1.458 1.183,-2.646 2.646,-2.646c1.458,0 2.641,1.188 2.641,2.646Z" style="fill:#768d98;fill-rule:nonzero;"/><path d="M954.125,351.396c1.783,2.887 1.15,6.654 -1.488,8.796l-35.191,28.591c-2.733,2.163 -6.117,3.334 -9.604,3.334c-5.234,0 -10.117,-2.642 -12.98,-7.025l-36.337,-54.242l23.654,-5.912l25.942,40.929l31.471,-23.892c3.175,-2.412 7.729,-1.563 9.829,1.825l4.704,7.596Z" style="fill:#f4b497;fill-rule:nonzero;"/><path d="M882.179,324.938c0,0 -0.212,-10.221 -4.629,-18.242c-5.683,-10.317 -21.15,-8.446 -24.363,2.892c-1.874,6.612 -0.362,16.083 10.921,28.887l18.071,-13.537Z" style="fill:#f4b497;fill-rule:nonzero;"/><path d="M984.721,311.583c0,0 -0.013,0.425 -0.067,1.188c-0.862,12.558 -5.908,24.466 -14.141,33.987l-16.746,19.363c-3.667,4.237 -9.917,5.012 -14.525,1.821c-5.746,-3.975 -13.063,-10.559 -17.804,-20.417c-1.646,-3.417 -0.421,-7.529 2.695,-9.683c6.817,-4.713 21.7,-21.909 32.542,-27.905c0,0 12.762,-2.05 28.046,1.646Z" style="fill:#00acbf;fill-rule:nonzero;"/><path d="M1038,420.729c-3.6,-26.104 -7.258,-84.691 -8.988,-106.596c-0.733,-9.316 -6.77,-17.337 -15.462,-20.771c-8.704,-3.437 -14.904,-4.17 -14.904,-4.17l-24.113,4.291c0,0 -52.891,10.088 -28.262,73.942l0.004,0c-1.337,22.358 -2.433,44.321 -3.071,54.967c-0.396,6.575 3.867,12.491 10.196,14.312c27.246,7.834 57.275,3.284 73.821,-0.471c7.079,-1.608 11.771,-8.312 10.779,-15.504Z" style="fill:#00b1d7;fill-rule:nonzero;"/><path d="M1050.79,371.354l-6.225,43.288c-0.955,6.608 -6.817,11.379 -13.484,10.966c-7.162,-0.446 -12.566,-6.683 -11.979,-13.837l3.521,-43.104l28.167,2.687Z" style="fill:#f7c6b9;fill-rule:nonzero;"/><path d="M1021.76,298.692c0,0 6.929,4.825 7.55,5.295c8.825,6.692 21.484,19.367 25.038,42.984l2.712,25.904c0.592,5.671 -3.183,10.85 -8.758,12.05c-6.95,1.496 -16.929,2.342 -27.55,-1.004c-3.679,-1.154 -5.879,-4.925 -5.308,-8.738c1.246,-8.341 1.42,-18.366 1.825,-34.379c0,0 -3.338,-28.625 4.491,-42.112Z" style="fill:#00b1d7;fill-rule:nonzero;"/><path d="M1022.36,422.838l-48.029,-68.946l19.371,-11.45l46.463,60.308c8.099,10.517 -1.605,25.904 -14.401,22.367c-0.179,-0.055 -0.362,-0.104 -0.55,-0.159c-1.158,-0.346 -2.162,-1.129 -2.854,-2.12Z" style="fill:#f7c6b9;fill-rule:nonzero;"/><path d="M995.592,346.004c0,0 -5.034,-15.046 -17.238,-20.046c-12.141,-4.979 -23.6,6.871 -18.371,18.905c2.384,5.475 7.363,10.45 17.325,11.954l18.284,-10.813Z" style="fill:#f7c6b9;fill-rule:nonzero;"/><path d="M1001.33,270.467l0,22.245c0,6.946 -5.621,12.571 -12.567,12.571c-6.908,0 -12.533,-5.625 -12.533,-12.571l0,-22.245l25.1,0Z" style="fill:#f7c6b9;fill-rule:nonzero;"/><path d="M1001.33,270.467l0,11.371c-6.737,6.037 -15.504,9.883 -25.1,10.504l0,-21.875l25.1,0Z" style="fill:#f4b6a4;fill-rule:nonzero;"/><path d="M973.483,286.492c-23.125,0 -41.866,-18.746 -41.866,-41.867l0,-50.138l83.733,0l0,50.138c0,23.121 -18.746,41.867 -41.867,41.867Z" style="fill:#f7c6b9;fill-rule:nonzero;"/><path d="M985.942,241.354c-3.884,0 -7.034,-3.15 -7.034,-7.033l0,-4.184c0,-3.887 3.15,-7.037 7.034,-7.037c3.887,0 7.033,3.15 7.033,7.037l0,4.184c0,3.883 -3.146,7.033 -7.033,7.033Z" style="fill:#81582a;fill-rule:nonzero;"/><path d="M997.446,225.242c0,2.941 -2.383,5.321 -5.325,5.321c-2.938,0 -5.321,-2.38 -5.321,-5.321c0,-2.942 2.383,-5.325 5.321,-5.325c2.942,0 5.325,2.383 5.325,5.325Z" style="fill:#fff;fill-rule:nonzero;"/><path d="M945.6,237.9c3.521,0 6.375,-2.854 6.375,-6.375l0,-3.788c0,-3.525 -2.854,-6.379 -6.375,-6.379c-3.521,0 -6.375,2.854 -6.375,6.379l0,3.788c0,3.521 2.854,6.375 6.375,6.375Z" style="fill:#81582a;fill-rule:nonzero;"/><path d="M935.175,223.3c0,2.663 2.158,4.821 4.825,4.821c2.662,0 4.825,-2.158 4.825,-4.821c0,-2.667 -2.163,-4.825 -4.825,-4.825c-2.667,0 -4.825,2.158 -4.825,4.825Z" style="fill:#fff;fill-rule:nonzero;"/><path d="M960.788,241.496c0,1.617 0.745,3.021 1.899,3.971c-2.187,-0.538 -3.841,-2.563 -3.841,-4.959c0,-2.812 2.271,-5.087 5.083,-5.087c1.159,0 2.233,0.371 3.1,1.075c-0.371,-0.084 -0.742,-0.125 -1.154,-0.125c-2.813,0 -5.087,2.275 -5.087,5.125Z" style="fill:#81582a;fill-rule:nonzero;"/><path d="M1023.17,246.433l-12.859,0l0,-25.712l12.859,0c7.1,0 12.854,5.754 12.854,12.854c0,7.104 -5.754,12.858 -12.854,12.858Z" style="fill:#f7c6b9;fill-rule:nonzero;"/><path d="M1031.6,234.45c0,2.317 -0.95,4.467 -2.479,5.958c-1.488,1.529 -3.638,2.48 -5.954,2.48l-8.434,0l0,-16.871l8.434,0c4.674,0 8.433,3.762 8.433,8.433Z" style="fill:#f4b6a4;fill-rule:nonzero;"/><path d="M1027.79,234.45c0,2.317 -0.95,4.467 -2.48,5.958c-1.487,1.529 -3.637,2.48 -5.954,2.48l-4.629,0l0,-16.871l4.629,0c4.675,0 8.434,3.762 8.434,8.433Z" style="fill:#f49e8c;fill-rule:nonzero;"/><path d="M958.825,257.883c0,0 9.175,2.971 16.413,-2.97c0,0 -4.655,9.041 -16.413,2.97Z" style="fill:#81582a;fill-rule:nonzero;"/><path d="M1027.79,220.721l-12.442,0c0,0 -46.296,1.087 -64.679,-23.354c0,0 -2.279,0.525 -19.054,13.058c-4.23,-9.3 -1.867,-21.812 4.333,-29.933c6.2,-8.117 15.512,-13.342 25.133,-16.784c8.146,-2.912 16.9,-4.712 25.467,-3.495c6.729,0.954 13.338,3.983 17.962,8.862c1.996,2.108 4.876,3.146 7.663,2.329c3.588,-1.05 7.45,-0.666 10.888,1.246c4.891,2.721 8.333,7.575 10.312,12.813c4.367,11.524 2.6,26.037 -5.583,35.258Z" style="fill:#81582a;fill-rule:nonzero;"/><path d="M1625.03,969.225l25.229,7.371c4.1,1.2 8.455,-0.854 10.134,-4.783l18.579,-43.442c2.429,-5.671 -0.829,-12.163 -6.829,-13.609c-3.342,-0.8 -6.863,0.176 -9.313,2.588l-24.996,24.588c0,0 3.304,17.787 -12.804,27.287Z" style="fill:#226fb8;fill-rule:nonzero;"/><path d="M1512.74,930.958c0,0 1.504,-1.725 4.516,-4.021c11.692,-8.925 27.259,-10.995 41.167,-6.204l79.412,21.205c0,0 4.825,20.058 -12.804,27.287l-72.133,-17.471c-5.246,-1.075 -10.692,-0.608 -15.684,1.333l-14.47,5.63l-10.004,-27.759Z" style="fill:#f5a785;fill-rule:nonzero;"/><path d="M1396.13,950.771c0,0 1.375,7.35 5.842,16.246c12.471,24.866 42.708,35.062 68.004,23.487l62.346,-28.541c4.171,-1.909 6.275,-6.655 4.746,-10.98c-2.075,-5.866 -6.1,-14.833 -13.85,-26.295c-2.396,-3.542 -7,-4.913 -10.938,-3.23l-49.55,21.155c0,0 -44.529,17.674 -66.6,8.158Z" style="fill:#ef9234;fill-rule:nonzero;"/><path d="M1603.32,994.383l24.4,12.413c3.967,1.587 8.496,-0.038 10.55,-3.784l22.692,-41.441c2.962,-5.413 0.349,-12.188 -5.484,-14.2c-3.25,-1.125 -6.846,-0.496 -9.521,1.671l-27.254,22.054c0,0 1.567,15.392 -15.383,23.287Z" style="fill:#3c7abe;fill-rule:nonzero;"/><path d="M1509.14,939.629c0,0 1.666,-1.571 4.883,-3.562c12.504,-7.759 28.196,-8.313 41.579,-2.2l63.1,37.229c0,0 2.863,17.8 -15.383,23.287l-56.217,-30.171c-5.121,-1.574 -10.583,-1.645 -15.741,-0.191l-14.946,4.204l-7.275,-28.596Z" style="fill:#f4b497;fill-rule:nonzero;"/><path d="M1391.17,948.075c0,0 0.658,7.45 4.241,16.737c10.013,25.959 39.121,39.026 65.417,29.95l64.808,-22.379c4.338,-1.495 6.892,-6.02 5.788,-10.471c-1.496,-6.037 -4.638,-15.354 -11.238,-27.512c-2.041,-3.754 -6.5,-5.567 -10.575,-4.271l-51.362,16.263c0,0 -46.029,13.291 -67.079,1.683Z" style="fill:#f1a23c;fill-rule:nonzero;"/><path d="M1512.13,822.463l0.271,0.15c0.158,0.074 0.317,0.145 0.467,0.17c0.366,0.138 0.762,0.175 1.15,0.163l23.279,-2.625c1.246,-0.15 2.266,-1.092 2.462,-2.342l7.35,-48.229c0.255,-1.75 -1.171,-3.333 -2.954,-3.196l-22.25,1.725l-0.521,0.088l0.009,0.041c-0.242,0.042 -0.471,0.13 -0.696,0.259l-6.079,3.554c-0.709,0.458 -1.221,1.221 -1.334,2.066l-5.154,40.213c-0.408,3.242 1.167,6.408 4,7.963Z" style="fill:#6b7f84;fill-rule:nonzero;"/><path d="M1512.13,822.463l0.271,0.15c0.158,0.074 0.317,0.145 0.467,0.17c0.154,-0.266 0.258,-0.529 0.308,-0.829l8.217,-53.546c-0.242,0.042 -0.471,0.13 -0.696,0.259l-6.079,3.554c-0.709,0.458 -1.221,1.221 -1.334,2.066l-5.154,40.213c-0.408,3.242 1.167,6.408 4,7.963Z" style="fill:#768d98;fill-rule:nonzero;"/><path d="M1530.56,775.604c0.23,1.438 1.58,2.413 3.017,2.184c1.429,-0.225 2.413,-1.575 2.184,-3.009c-0.23,-1.437 -1.58,-2.412 -3.013,-2.187c-1.433,0.229 -2.417,1.575 -2.188,3.012Z" style="fill:#768d98;fill-rule:nonzero;"/><path d="M1458.77,853.783c-1.309,3.117 -0.096,6.717 2.829,8.409l39.033,22.6c3.029,1.691 6.533,2.32 9.958,1.775c5.142,-0.821 9.525,-4.175 11.659,-8.93l27.233,-58.962l-24.162,-2.112l-19.1,44.258l-34.646,-18.563c-3.492,-1.871 -7.838,-0.329 -9.371,3.325l-3.433,8.2Z" style="fill:#f5a785;fill-rule:nonzero;"/><path d="M1525.32,816.563c0,0 -1.388,-10.075 1.7,-18.646c3.975,-11.025 19.462,-11.6 24.387,-0.963c2.871,6.204 2.863,15.746 -6.221,30.088l-19.866,-10.479Z" style="fill:#f5a785;fill-rule:nonzero;"/><path d="M1422.49,819.437c0,0 0.083,0.421 0.254,1.163c2.804,12.2 9.621,23.117 19.196,31.183l19.471,16.409c4.266,3.591 10.525,3.375 14.554,-0.48c5.025,-4.8 11.183,-12.408 14.308,-22.837c1.079,-3.608 -0.762,-7.458 -4.163,-9.092c-7.433,-3.566 -24.741,-18.133 -36.324,-22.333c0,0 -12.855,-0.021 -27.296,5.987Z" style="fill:#226fb8;fill-rule:nonzero;"/><path d="M1403.07,803.742c0,0 -5.975,1.687 -13.992,6.425c-8.004,4.729 -12.679,13.55 -11.95,22.816c1.721,21.792 7.267,79.917 7.804,106.125c0.15,7.221 5.804,13.075 13.013,13.55c16.837,1.105 47.054,0.892 72.595,-11.058c5.938,-2.775 9.196,-9.258 7.784,-15.654c-4.179,-18.934 -15.763,-74.779 -23.063,-102.229c-2.241,-8.442 -8.883,-14.904 -17.32,-17.155c-0.096,-0.024 -0.192,-0.049 -0.292,-0.079c-5.838,-1.541 -11.863,-2.321 -17.904,-2.433l-16.675,-0.308Z" style="fill:#3c7abe;fill-rule:nonzero;"/><path d="M1369.58,878.413l6.483,45.054c0.988,6.883 7.096,11.85 14.034,11.416c7.454,-0.462 13.079,-6.954 12.466,-14.4l-3.662,-44.866l-29.321,2.796Z" style="fill:#f4b497;fill-rule:nonzero;"/><path d="M1382.75,816.563c0,0 -0.321,0.32 -0.875,0.916c-9.071,9.763 -14.616,22.292 -16.004,35.554l-2.821,26.963c-0.621,5.904 3.313,11.296 9.113,12.542c7.241,1.558 17.625,2.437 28.679,-1.042c3.829,-1.204 6.121,-5.125 5.525,-9.096c-1.296,-8.683 -3.854,-24.375 -7.075,-37.096c0,0 -2.929,-14.662 -16.542,-28.741Z" style="fill:#3e79be;fill-rule:nonzero;"/><path d="M1399.17,932.004l49.992,-71.766l-20.163,-11.921l-48.362,62.775c-8.434,10.946 1.666,26.962 14.987,23.279c0.188,-0.05 0.379,-0.104 0.571,-0.163c1.208,-0.358 2.254,-1.17 2.975,-2.204Z" style="fill:#f4b497;fill-rule:nonzero;"/><path d="M1427.03,852.029c0,0 5.238,-15.662 17.946,-20.871c12.638,-5.179 24.563,7.154 19.117,19.684c-2.475,5.696 -7.658,10.875 -18.025,12.437l-19.038,-11.25Z" style="fill:#f4b497;fill-rule:nonzero;"/><path d="M1393.17,788.1l3.333,20.996c1.042,6.554 7.196,11.021 13.75,9.979c6.517,-1.038 10.983,-7.188 9.942,-13.742l-3.334,-20.996l-23.691,3.763Z" style="fill:#f4b497;fill-rule:nonzero;"/><path d="M1393.17,788.1l1.708,10.729c7.263,4.688 16.112,7.004 25.258,6.154l-3.275,-20.646l-23.691,3.763Z" style="fill:#eaa487;fill-rule:nonzero;"/><path d="M1417.29,800.267c22.08,0.962 40.759,-16.15 41.721,-38.225l2.092,-47.867l-79.942,-3.496l-2.091,47.867c-0.967,22.075 16.15,40.754 38.22,41.721Z" style="fill:#f4b497;fill-rule:nonzero;"/><path d="M1407.28,756.65c3.712,0.162 6.85,-2.713 7.012,-6.417l0.176,-4c0.162,-3.704 -2.717,-6.845 -6.426,-7.008c-3.708,-0.162 -6.845,2.717 -7.008,6.421l-0.175,3.996c-0.162,3.708 2.713,6.846 6.421,7.008Z" style="fill:#81582a;fill-rule:nonzero;"/><path d="M1396.97,740.788c-0.121,2.804 2.054,5.183 4.858,5.304c2.808,0.121 5.188,-2.05 5.308,-4.854c0.121,-2.813 -2.054,-5.188 -4.862,-5.313c-2.804,-0.121 -5.179,2.063 -5.304,4.863Z" style="fill:#fff;fill-rule:nonzero;"/><path d="M1445.94,755.038c-3.358,-0.15 -5.962,-2.988 -5.816,-6.355l0.158,-3.616c0.146,-3.363 2.992,-5.967 6.35,-5.821c3.363,0.146 5.967,2.996 5.821,6.354l-0.158,3.617c-0.146,3.362 -2.992,5.966 -6.355,5.821Z" style="fill:#81582a;fill-rule:nonzero;"/><path d="M1456.5,741.529c-0.117,2.546 -2.267,4.521 -4.812,4.413c-2.542,-0.117 -4.517,-2.263 -4.4,-4.813c0.108,-2.546 2.262,-4.516 4.804,-4.4c2.542,0.109 4.517,2.263 4.408,4.8Z" style="fill:#fff;fill-rule:nonzero;"/><path d="M1431.29,757.837c-0.071,1.538 -0.838,2.855 -1.984,3.713c2.113,-0.425 3.775,-2.288 3.879,-4.579c0.117,-2.683 -1.962,-4.95 -4.645,-5.067c-1.105,-0.046 -2.146,0.263 -3.005,0.9c0.359,-0.067 0.717,-0.091 1.113,-0.071c2.679,0.117 4.758,2.38 4.642,5.104Z" style="fill:#81582a;fill-rule:nonzero;"/><path d="M1464.24,715.021c-1.145,1.458 -2.241,2.346 -2.816,2.762c-0.313,0.213 -0.467,0.313 -0.467,0.313c-4.275,-0.888 -8.971,-1.563 -13.875,-2.083c-15.125,-1.621 -32.233,-1.671 -43.862,-1.459c-2.034,0 -3.913,0.046 -5.579,0.1c-0.575,0.054 -1.15,0.054 -1.671,0.054c-2.034,0.05 -3.65,0.104 -4.796,0.204c-1.15,0 -1.775,0.055 -1.775,0.055l0,0.054c-0.154,0.937 -0.313,1.825 -0.521,2.712c-0.312,1.305 -0.625,2.555 -1.042,3.754c-1.304,4.013 -3.025,7.359 -4.587,9.805c-0.733,1.2 -1.409,2.191 -1.984,2.925c-0.366,0.466 -0.679,0.883 -0.887,1.146c-0.212,0.204 -0.313,0.366 -0.313,0.366l-0.054,0l-12.308,0.467l-0.054,0c-0.725,-2.446 -1.246,-4.959 -1.667,-7.35c-0.366,-1.884 -0.575,-3.759 -0.783,-5.588c-1.879,-17 11.629,-31.966 28.792,-31.55c5.891,0.154 10.166,0.68 10.166,0.68c16.538,2.866 32.863,2.02 44.65,-0.325c7.875,-1.563 14.546,2.041 17.154,8.195c2.034,4.696 1.775,10.225 -1.721,14.763Z" style="fill:#81582a;fill-rule:nonzero;"/><path d="M1464.24,715.021c-1.145,1.458 -2.241,2.346 -2.816,2.762c-0.313,0.259 -0.467,0.367 -0.467,0.367c-4.229,-0.887 -8.971,-1.562 -13.875,-2.137c-15.125,-1.621 -32.233,-1.671 -43.862,-1.459c-2.034,0.046 -3.913,0.046 -5.579,0.1c-0.575,0.054 -1.15,0.054 -1.671,0.054c-2.034,0.104 -3.7,0.159 -4.796,0.204c-1.15,0.055 -1.775,0.109 -1.775,0.109c-0.154,0.937 -0.313,1.825 -0.521,2.712c-0.312,1.305 -0.625,2.555 -1.042,3.754c-1.304,4.013 -3.025,7.359 -4.587,9.805c-0.733,1.2 -1.463,2.191 -1.984,2.925c-0.366,0.466 -0.679,0.883 -0.887,1.146c-0.212,0.204 -0.313,0.366 -0.313,0.366l-0.054,0l-12.308,0.467l-0.054,0c-0.725,-2.446 -1.246,-4.959 -1.667,-7.35c3.704,-1.829 8.446,-1.621 11.942,0.671c0.991,-1.613 1.879,-3.334 2.662,-5.109c1.459,-3.079 2.609,-6.366 3.388,-9.65c0.366,-1.354 0.887,-2.658 1.616,-3.858c2.192,-3.967 6.051,-6.729 10.692,-7.3c18.204,-2.087 37.188,-1.15 55.075,2.45c5.683,1.146 11.634,-1.146 14.604,-5.792c2.034,4.696 1.775,10.225 -1.721,14.763Z" style="fill:#81582a;fill-rule:nonzero;"/><path d="M1446.25,691.708c0,0 -23.259,2.346 -47.358,18.463c-10.48,6.992 -21.175,16.637 -30.146,29.833c0,0 -2.971,-1.983 -6.046,-8.083c-5.896,-11.633 -5.896,-25.35 -0.421,-36.771c1.617,-3.288 3.65,-6.417 6.154,-9.233c5.113,-5.684 12.363,-11.263 22.742,-15.229c19.4,-7.563 41.775,-0.467 52.675,16.795c0.729,1.146 1.408,2.296 2.033,3.546c0.05,0.054 0.05,0.104 0.104,0.158l0.263,0.521Z" style="fill:#226fb8;fill-rule:nonzero;"/><path d="M1443.85,687.483c-9.129,0.73 -24.463,3.184 -40.942,10.95c-9.275,4.384 -18.967,10.505 -28.087,18.98c-3.5,3.254 -9.284,1.966 -10.809,-2.563c-0.021,-0.067 -0.041,-0.129 -0.062,-0.196c-2.138,-6.358 -2.663,-13.037 -1.671,-19.504c1.617,-3.288 3.65,-6.417 6.154,-9.233c5.113,-5.684 12.363,-11.263 22.742,-15.229c19.4,-7.563 41.775,-0.467 52.675,16.795Z" style="fill:#226fb8;fill-rule:nonzero;"/><path d="M1371.53,759.946l12.271,0.537l1.075,-24.545l-12.275,-0.538c-6.779,-0.3 -12.517,4.958 -12.808,11.738c-0.3,6.779 4.954,12.512 11.737,12.808Z" style="fill:#f4b497;fill-rule:nonzero;"/><path d="M1363.98,748.158c-0.096,2.209 0.721,4.305 2.121,5.788c1.354,1.521 3.371,2.521 5.579,2.616l8.058,0.355l0.704,-16.109l-8.058,-0.354c-4.458,-0.196 -8.208,3.242 -8.404,7.704Z" style="fill:#eaa487;fill-rule:nonzero;"/><path d="M1367.61,748.317c-0.095,2.208 0.721,4.3 2.117,5.787c1.363,1.521 3.375,2.521 5.583,2.617l4.425,0.196l0.704,-16.109l-4.424,-0.196c-4.459,-0.191 -8.213,3.246 -8.405,7.705Z" style="fill:#e19477;fill-rule:nonzero;"/><path d="M1473.99,696.296c-5.846,5.896 -13.613,8.658 -13.613,8.658c-15.283,5.896 -55.079,5.371 -61.491,5.217c2.924,-1.984 5.891,-3.758 8.762,-5.321c20.654,-11.317 38.596,-13.142 38.596,-13.142c4.746,-0.937 18.879,-2.504 24.775,-2.4l0.05,0c3.546,0.159 5.475,4.434 2.921,6.988Z" style="fill:#ef9234;fill-rule:nonzero;"/><path d="M1471.07,689.308c-0.209,0.575 -0.521,1.146 -0.992,1.617c-5.842,5.892 -13.612,8.658 -13.612,8.658c-10.85,4.171 -33.954,5.163 -48.817,5.267c20.654,-11.317 38.596,-13.142 38.596,-13.142c4.746,-0.937 18.879,-2.504 24.775,-2.4l0.05,0Z" style="fill:#f1a23c;fill-rule:nonzero;"/><path d="M1434.04,770.767c-0.105,0.729 -0.313,1.408 -0.521,2.033c-0.788,2.396 -2.35,3.858 -4.229,4.592c-3.542,1.3 -8.079,-0.267 -9.8,-4.017c-0.421,-0.833 -0.679,-1.829 -0.734,-2.871c-0.154,-2.346 0.471,-4.121 0.471,-4.121c7.458,5.059 14.813,4.384 14.813,4.384Z" style="fill:#81582a;fill-rule:nonzero;"/><path d="M1429.29,777.392c-3.542,1.3 -8.079,-0.267 -9.8,-4.017c1.041,-0.787 2.296,-1.254 3.7,-1.254c3.079,0 5.687,2.296 6.1,5.271Z" style="fill:#ed7676;fill-rule:nonzero;"/><path d="M302.175,927.633l-13.8,123.65c-0.467,4.205 2.096,8.204 6.154,9.396c4.871,1.438 11.675,2.625 18.229,1.004c3.48,-0.858 5.984,-3.92 6.404,-7.483l14.496,-123.354l-31.483,-3.213Z" style="fill:#f4b6a4;fill-rule:nonzero;"/><path d="M319.812,1048.65l-1.954,27.434c-0.316,4.458 -3.916,7.983 -8.387,8.2l-49.379,2.412c-6.446,0.312 -11.629,-5.246 -10.863,-11.654c0.429,-3.571 2.671,-6.667 5.929,-8.2l33.217,-15.563c0,0 16.254,9.717 31.437,-2.629Z" style="fill:#ef9234;fill-rule:nonzero;"/><path d="M304.792,826.413c0,0 -10.713,75.341 -13.342,109.779c-0.479,6.3 3.154,12.208 9.042,14.483c7.691,2.975 19.512,5.938 33.625,4.108c6.191,-0.804 11.071,-5.683 12.133,-11.841c3.712,-21.475 13.208,-73.546 22.575,-101.184c0,0 -31.983,-13.433 -64.033,-15.345Z" style="fill:#226fb8;fill-rule:nonzero;"/><path d="M358.079,934.375l10.704,123.954c0.363,4.217 3.663,7.633 7.875,8.009c5.059,0.458 11.967,0.287 18.071,-2.588c3.242,-1.525 5.1,-5.017 4.813,-8.588l-9.959,-123.808l-31.504,3.021Z" style="fill:#f7c6b9;fill-rule:nonzero;"/><path d="M399.096,1049.6l3.458,27.283c0.563,4.434 -2.279,8.592 -6.616,9.683l-47.951,12.042c-6.258,1.571 -12.429,-2.862 -12.933,-9.3c-0.279,-3.583 1.313,-7.062 4.204,-9.2l29.525,-21.775c0,0 17.842,6.346 30.313,-8.733Z" style="fill:#f1a23c;fill-rule:nonzero;"/><path d="M307.554,826.704c0,0 11.717,28.254 35.146,40.654c0,0 7.063,57.971 11.058,82.617c0.796,4.925 4.488,8.871 9.367,9.913c8.579,1.833 22.3,2.737 32.279,-6.396c2.779,-2.546 4.196,-6.267 3.846,-10.021c-1.65,-17.875 -7.046,-79.363 -7.046,-120.217c0,0 -45.241,3.625 -84.65,3.45Z" style="fill:#3e79be;fill-rule:nonzero;"/><path d="M244.683,736.754l-0.25,0.2c-0.154,0.104 -0.304,0.204 -0.458,0.259c-0.354,0.2 -0.754,0.295 -1.162,0.349l-24.488,1.113c-1.312,0.05 -2.521,-0.758 -2.929,-2.025l-15.509,-48.633c-0.558,-1.767 0.655,-3.634 2.525,-3.784l23.276,-1.871l0.554,0l0,0.051c0.254,0 0.504,0.05 0.758,0.154l6.867,2.675c0.808,0.354 1.466,1.058 1.716,1.916l11.925,40.709c0.963,3.283 -0.15,6.816 -2.825,8.887Z" style="fill:#6b7f84;fill-rule:nonzero;"/><path d="M244.683,736.754l-0.25,0.2c-0.154,0.104 -0.304,0.204 -0.458,0.259c-0.2,-0.259 -0.354,-0.509 -0.454,-0.809l-17.279,-53.991c0.254,0 0.504,0.05 0.758,0.154l6.867,2.675c0.808,0.354 1.466,1.058 1.716,1.916l11.925,40.709c0.963,3.283 -0.15,6.816 -2.825,8.887Z" style="fill:#768d98;fill-rule:nonzero;"/><path d="M217.942,691.354c0,1.521 -1.234,2.754 -2.754,2.754c-1.521,0 -2.755,-1.233 -2.755,-2.754c0,-1.525 1.234,-2.754 2.755,-2.754c1.52,0 2.754,1.229 2.754,2.754Z" style="fill:#768d98;fill-rule:nonzero;"/><path d="M304.975,760.358c1.862,3.005 1.2,6.93 -1.542,9.159l-36.633,29.762c-2.846,2.25 -6.371,3.471 -9.996,3.471c-5.45,0 -10.533,-2.754 -13.512,-7.313l-37.825,-56.462l24.621,-6.154l27.004,42.604l32.758,-24.875c3.304,-2.504 8.046,-1.625 10.229,1.9l4.896,7.908Z" style="fill:#f4b6a4;fill-rule:nonzero;"/><path d="M230.088,732.821c0,0 -0.221,-10.638 -4.817,-18.988c-5.917,-10.741 -22.017,-8.795 -25.363,3.005c-1.95,6.883 -0.375,16.75 11.371,30.075l18.809,-14.092Z" style="fill:#f4b6a4;fill-rule:nonzero;"/><path d="M336.825,718.913c0,0 -0.017,0.445 -0.071,1.241c-0.896,13.075 -6.15,25.471 -14.721,35.379l-17.429,20.15c-3.816,4.413 -10.321,5.217 -15.117,1.896c-5.979,-4.137 -13.6,-10.987 -18.537,-21.25c-1.708,-3.558 -0.438,-7.833 2.808,-10.079c7.096,-4.904 22.592,-22.808 33.875,-29.046c0,0 13.284,-2.129 29.192,1.709Z" style="fill:#ef9234;fill-rule:nonzero;"/><path d="M354.325,699.5c0,0 6.454,0.767 15.513,4.342c9.049,3.575 15.329,11.925 16.095,21.625c1.8,22.795 5.609,83.779 9.355,110.954c1.033,7.483 -3.855,14.462 -11.221,16.137c-17.221,3.904 -48.479,8.646 -76.842,0.492c-6.588,-1.896 -11.021,-8.058 -10.613,-14.9c1.213,-20.25 4.013,-79.838 7.046,-109.412c0.938,-9.08 6.717,-16.88 15.059,-20.584c3.45,-1.533 7.141,-3.05 10.508,-4.187l25.1,-4.467Z" style="fill:#f1a23c;fill-rule:nonzero;"/><path d="M392.437,724.737l27.48,65.126c3.325,7.875 4.041,16.616 2.037,24.929l-14.512,60.233l-23.121,-4.217l12.475,-50.145c2.221,-8.925 1.296,-18.351 -2.617,-26.675l-16.371,-34.838c-6.266,-13.333 0.146,-29.442 14.08,-34.225c0.183,-0.063 0.366,-0.125 0.549,-0.188Z" style="fill:#f7c6b9;fill-rule:nonzero;"/><path d="M384.321,870.808c0,0 -7.654,7.392 -10.65,16.442c-3.859,11.642 8.516,22.121 19.446,16.554c6.37,-3.246 12.533,-11.108 14.325,-28.779l-23.121,-4.217Z" style="fill:#f7c6b9;fill-rule:nonzero;"/><path d="M372.142,705.604c0,0 0.421,0.142 1.162,0.425c12.238,4.679 22.559,13.325 29.533,24.417l14.18,22.558c3.104,4.942 1.975,11.396 -2.605,15.017c-5.708,4.508 -14.483,9.787 -25.741,11.508c-3.9,0.6 -7.621,-1.867 -8.817,-5.625c-2.621,-8.221 -7.171,-23.166 -9.841,-35.775c0,0 -3.775,-14.208 2.129,-32.525Z" style="fill:#f1a23c;fill-rule:nonzero;"/><path d="M355.217,680.258l0,22.242c0,6.95 -5.625,12.575 -12.571,12.575c-6.904,0 -12.529,-5.625 -12.529,-12.575l0,-22.242l25.1,0Z" style="fill:#f7c6b9;fill-rule:nonzero;"/><path d="M355.217,680.258l0,11.371c-6.742,6.033 -15.509,9.879 -25.1,10.5l0,-21.871l25.1,0Z" style="fill:#f4b6a4;fill-rule:nonzero;"/><path d="M327.367,696.279c-23.121,0 -41.867,-18.746 -41.867,-41.866l0,-50.138l83.733,0l0,50.138c0,23.12 -18.746,41.866 -41.866,41.866Z" style="fill:#f7c6b9;fill-rule:nonzero;"/><path d="M339.829,651.142c-3.887,0 -7.037,-3.15 -7.037,-7.034l0,-4.183c0,-3.883 3.15,-7.033 7.037,-7.033c3.883,0 7.034,3.15 7.034,7.033l0,4.183c0,3.884 -3.151,7.034 -7.034,7.034Z" style="fill:#81582a;fill-rule:nonzero;"/><path d="M351.329,635.029c0,2.942 -2.383,5.325 -5.321,5.325c-2.941,0 -5.325,-2.383 -5.325,-5.325c0,-2.937 2.384,-5.321 5.325,-5.321c2.938,0 5.321,2.384 5.321,5.321Z" style="fill:#fff;fill-rule:nonzero;"/><path d="M299.483,647.687c3.521,0 6.375,-2.849 6.375,-6.375l0,-3.787c0,-3.521 -2.854,-6.375 -6.375,-6.375c-3.521,0 -6.375,2.854 -6.375,6.375l0,3.787c0,3.526 2.854,6.375 6.375,6.375Z" style="fill:#81582a;fill-rule:nonzero;"/><path d="M289.058,633.087c0,2.663 2.163,4.826 4.825,4.826c2.663,0 4.825,-2.163 4.825,-4.826c0,-2.662 -2.162,-4.824 -4.825,-4.824c-2.662,0 -4.825,2.162 -4.825,4.824Z" style="fill:#fff;fill-rule:nonzero;"/><path d="M314.671,651.288c0,1.612 0.746,3.016 1.904,3.97c-2.192,-0.537 -3.846,-2.566 -3.846,-4.962c0,-2.813 2.275,-5.088 5.084,-5.088c1.158,0 2.233,0.371 3.104,1.075c-0.375,-0.083 -0.746,-0.125 -1.159,-0.125c-2.812,0 -5.087,2.275 -5.087,5.13Z" style="fill:#81582a;fill-rule:nonzero;"/><path d="M369.233,630.508c0,0 -7.495,-9.175 -8.787,-22.096c0,0 -46.775,-4.654 -74.946,0c0,0 -14.475,-10.079 -3.875,-33.083c0,0 31.85,12.925 64.383,8.788c0,0 4.521,-0.375 10.688,-0.25c17.691,0.358 31.296,16.229 28.754,33.737c-0.646,4.467 -1.679,9.204 -3.263,13.975l-12.954,-1.071Z" style="fill:#81582a;fill-rule:nonzero;"/><path d="M377.05,656.221l-12.858,0l0,-25.713l12.858,0c7.1,0 12.858,5.754 12.858,12.859c0,7.1 -5.758,12.854 -12.858,12.854Z" style="fill:#f7c6b9;fill-rule:nonzero;"/><path d="M385.483,644.242c0,2.316 -0.95,4.462 -2.483,5.954c-1.487,1.529 -3.638,2.479 -5.954,2.479l-8.433,0l0,-16.871l8.433,0c4.675,0 8.437,3.763 8.437,8.438Z" style="fill:#f4b6a4;fill-rule:nonzero;"/><path d="M381.679,644.242c0,2.316 -0.95,4.462 -2.483,5.954c-1.488,1.529 -3.638,2.479 -5.954,2.479l-4.629,0l0,-16.871l4.629,0c4.675,0 8.437,3.763 8.437,8.438Z" style="fill:#f49e8c;fill-rule:nonzero;"/><path d="M384.283,623.979c-0.537,2.479 -1.241,5.046 -2.108,7.609l-12.942,-1.075c0,0 -7.487,-9.18 -8.808,-22.08c0,0 -46.767,-4.675 -74.925,0c0,0 -11.704,-8.146 -6.367,-26.545c-0.041,0.783 0.042,1.529 0.125,2.274c0.121,0.742 0.288,1.488 0.45,2.23c1.946,6.987 9.184,10.958 16.334,9.841c18.9,-2.937 38.745,-3.058 57.687,-0.041c6.283,1.033 11.079,5.996 12.359,12.2c1.079,5.5 3.02,10.833 5.666,15.712c3.763,-2.233 8.725,-2.233 12.529,-0.125Z" style="fill:#81582a;fill-rule:nonzero;"/><path d="M312.708,667.675c0,0 9.175,2.967 16.413,-2.975c0,0 -4.65,9.046 -16.413,2.975Z" style="fill:#81582a;fill-rule:nonzero;"/></g></svg>